<?xml version="1.0" encoding="UTF-8"?>
<svg xmlns="http://www.w3.org/2000/svg" width="1300" height="720" viewBox="0 0 1300 720">
  <rect width="1300" height="720" fill="#0b1220" />
  <text x="50" y="58" fill="#f8fafc" font-size="34" font-family="Inter, Segoe UI, Arial" font-weight="700">Gas Trend: Optimized vs Unoptimized</text>
  <text x="50" y="90" fill="#94a3b8" font-size="16" font-family="Inter, Segoe UI, Arial">Iterations: 12 • Ratio(unoptimized/optimized): ~7.68x • Generated: 2026-03-16T17:32:16.519Z</text>

  <line x1="110" y1="120" x2="110" y2="600" stroke="#334155" stroke-width="2" />
  <line x1="110" y1="600" x2="1220" y2="600" stroke="#334155" stroke-width="2" />

  <line x1="110" y1="600" x2="1220" y2="600" stroke="#1f2937" /><text x="98" y="605" text-anchor="end" fill="#93c5fd" font-size="13">0</text><line x1="110" y1="503.99997682397435" x2="1220" y2="503.99997682397435" stroke="#1f2937" /><text x="98" y="508.99997682397435" text-anchor="end" fill="#93c5fd" font-size="13">1,656,885</text><line x1="110" y1="408.00001158801285" x2="1220" y2="408.00001158801285" stroke="#1f2937" /><text x="98" y="413.00001158801285" text-anchor="end" fill="#93c5fd" font-size="13">3,313,769</text><line x1="110" y1="311.99998841198715" x2="1220" y2="311.99998841198715" stroke="#1f2937" /><text x="98" y="316.99998841198715" text-anchor="end" fill="#93c5fd" font-size="13">4,970,654</text><line x1="110" y1="216.00002317602565" x2="1220" y2="216.00002317602565" stroke="#1f2937" /><text x="98" y="221.00002317602565" text-anchor="end" fill="#93c5fd" font-size="13">6,627,538</text><line x1="110" y1="120" x2="1220" y2="120" stroke="#1f2937" /><text x="98" y="125" text-anchor="end" fill="#93c5fd" font-size="13">8,284,423</text>
  <text x="110" y="628" text-anchor="middle" fill="#93c5fd" font-size="12">#1</text><text x="210.9090909090909" y="628" text-anchor="middle" fill="#93c5fd" font-size="12">#2</text><text x="311.8181818181818" y="628" text-anchor="middle" fill="#93c5fd" font-size="12">#3</text><text x="412.72727272727275" y="628" text-anchor="middle" fill="#93c5fd" font-size="12">#4</text><text x="513.6363636363636" y="628" text-anchor="middle" fill="#93c5fd" font-size="12">#5</text><text x="614.5454545454545" y="628" text-anchor="middle" fill="#93c5fd" font-size="12">#6</text><text x="715.4545454545455" y="628" text-anchor="middle" fill="#93c5fd" font-size="12">#7</text><text x="816.3636363636364" y="628" text-anchor="middle" fill="#93c5fd" font-size="12">#8</text><text x="917.2727272727273" y="628" text-anchor="middle" fill="#93c5fd" font-size="12">#9</text><text x="1018.1818181818181" y="628" text-anchor="middle" fill="#93c5fd" font-size="12">#10</text><text x="1119.090909090909" y="628" text-anchor="middle" fill="#93c5fd" font-size="12">#11</text><text x="1220" y="628" text-anchor="middle" fill="#93c5fd" font-size="12">#12</text>

  <path d="M 110.00 537.48 L 210.91 537.48 L 311.82 537.48 L 412.73 537.48 L 513.64 537.48 L 614.55 537.48 L 715.45 537.48 L 816.36 537.48 L 917.27 537.48 L 1018.18 537.48 L 1119.09 537.48 L 1220.00 537.48" fill="none" stroke="#22c55e" stroke-width="3" />
  <path d="M 110.00 120.00 L 210.91 120.00 L 311.82 120.00 L 412.73 120.00 L 513.64 120.00 L 614.55 120.00 L 715.45 120.00 L 816.36 120.00 L 917.27 120.00 L 1018.18 120.00 L 1119.09 120.00 L 1220.00 120.00" fill="none" stroke="#ef4444" stroke-width="3" />

  <circle cx="110" cy="537.4757179830146" r="4" fill="#22c55e" />
<circle cx="210.9090909090909" cy="537.4757179830146" r="4" fill="#22c55e" />
<circle cx="311.8181818181818" cy="537.4757179830146" r="4" fill="#22c55e" />
<circle cx="412.72727272727275" cy="537.4757179830146" r="4" fill="#22c55e" />
<circle cx="513.6363636363636" cy="537.4757179830146" r="4" fill="#22c55e" />
<circle cx="614.5454545454545" cy="537.4757179830146" r="4" fill="#22c55e" />
<circle cx="715.4545454545455" cy="537.4757179830146" r="4" fill="#22c55e" />
<circle cx="816.3636363636364" cy="537.4757179830146" r="4" fill="#22c55e" />
<circle cx="917.2727272727273" cy="537.4757179830146" r="4" fill="#22c55e" />
<circle cx="1018.1818181818181" cy="537.4757179830146" r="4" fill="#22c55e" />
<circle cx="1119.090909090909" cy="537.4757179830146" r="4" fill="#22c55e" />
<circle cx="1220" cy="537.4757179830146" r="4" fill="#22c55e" />
  <circle cx="110" cy="120" r="4" fill="#ef4444" />
<circle cx="210.9090909090909" cy="120" r="4" fill="#ef4444" />
<circle cx="311.8181818181818" cy="120" r="4" fill="#ef4444" />
<circle cx="412.72727272727275" cy="120" r="4" fill="#ef4444" />
<circle cx="513.6363636363636" cy="120" r="4" fill="#ef4444" />
<circle cx="614.5454545454545" cy="120" r="4" fill="#ef4444" />
<circle cx="715.4545454545455" cy="120" r="4" fill="#ef4444" />
<circle cx="816.3636363636364" cy="120" r="4" fill="#ef4444" />
<circle cx="917.2727272727273" cy="120" r="4" fill="#ef4444" />
<circle cx="1018.1818181818181" cy="120" r="4" fill="#ef4444" />
<circle cx="1119.090909090909" cy="120" r="4" fill="#ef4444" />
<circle cx="1220" cy="120" r="4" fill="#ef4444" />

  <rect x="50" y="620" width="16" height="16" fill="#22c55e" />
  <text x="74" y="634" fill="#d1fae5" font-size="16" font-family="Inter, Segoe UI, Arial">verifyVDFPublic (0x05 precompile)</text>

  <rect x="430" y="620" width="16" height="16" fill="#ef4444" />
  <text x="454" y="634" fill="#fecaca" font-size="16" font-family="Inter, Segoe UI, Arial">verifyVDF_Unoptimized</text>
</svg>