<?xml version="1.0" encoding="UTF-8"?>
<svg xmlns="http://www.w3.org/2000/svg" width="1300" height="386" viewBox="0 0 1300 386">
<rect x="0" y="0" width="1300" height="386" fill="#0b1220" /><text x="40" y="54" fill="#f8fafc" font-size="30" font-family="Inter, Segoe UI, Arial" font-weight="700">Hardhat Gas Report</text><text x="40" y="82" fill="#94a3b8" font-size="16" font-family="Inter, Segoe UI, Arial">Solc version: 0.8.20          ·  Optimizer enabled: true  ·  Runs: 200  ·  Block limit: 60000000 gas</text><text x="40" y="96" fill="#93c5fd" font-size="20" font-family="Inter, Segoe UI, Arial" font-weight="600">Methods</text><rect x="40" y="104" width="1080" height="38" fill="#0f172a" rx="6" /><text x="50" y="130" fill="#e5e7eb" font-size="16" font-family="Inter, Segoe UI, Arial">Contract</text><line x1="280" y1="104" x2="280" y2="142" stroke="#374151" stroke-width="1" /><text x="290" y="130" fill="#e5e7eb" font-size="16" font-family="Inter, Segoe UI, Arial">Method</text><line x1="510" y1="104" x2="510" y2="142" stroke="#374151" stroke-width="1" /><text x="520" y="130" fill="#e5e7eb" font-size="16" font-family="Inter, Segoe UI, Arial">Min</text><line x1="630" y1="104" x2="630" y2="142" stroke="#374151" stroke-width="1" /><text x="640" y="130" fill="#e5e7eb" font-size="16" font-family="Inter, Segoe UI, Arial">Max</text><line x1="750" y1="104" x2="750" y2="142" stroke="#374151" stroke-width="1" /><text x="760" y="130" fill="#e5e7eb" font-size="16" font-family="Inter, Segoe UI, Arial">Avg</text><line x1="890" y1="104" x2="890" y2="142" stroke="#374151" stroke-width="1" /><text x="900" y="130" fill="#e5e7eb" font-size="16" font-family="Inter, Segoe UI, Arial"># Calls</text><line x1="1000" y1="104" x2="1000" y2="142" stroke="#374151" stroke-width="1" /><text x="1010" y="130" fill="#e5e7eb" font-size="16" font-family="Inter, Segoe UI, Arial">USD</text><rect x="40" y="142" width="1080" height="38" fill="#111827" rx="6" /><text x="50" y="168" fill="#d1d5db" font-size="16" font-family="Inter, Segoe UI, Arial">VDFVerifierMock</text><line x1="280" y1="142" x2="280" y2="180" stroke="#374151" stroke-width="1" /><text x="290" y="168" fill="#d1d5db" font-size="16" font-family="Inter, Segoe UI, Arial">verifyVDFPublic</text><line x1="510" y1="142" x2="510" y2="180" stroke="#374151" stroke-width="1" /><text x="520" y="168" fill="#d1d5db" font-size="16" font-family="Inter, Segoe UI, Arial">-</text><line x1="630" y1="142" x2="630" y2="180" stroke="#374151" stroke-width="1" /><text x="640" y="168" fill="#d1d5db" font-size="16" font-family="Inter, Segoe UI, Arial">-</text><line x1="750" y1="142" x2="750" y2="180" stroke="#374151" stroke-width="1" /><text x="760" y="168" fill="#d1d5db" font-size="16" font-family="Inter, Segoe UI, Arial">1079102</text><line x1="890" y1="142" x2="890" y2="180" stroke="#374151" stroke-width="1" /><text x="900" y="168" fill="#d1d5db" font-size="16" font-family="Inter, Segoe UI, Arial">2</text><line x1="1000" y1="142" x2="1000" y2="180" stroke="#374151" stroke-width="1" /><text x="1010" y="168" fill="#d1d5db" font-size="16" font-family="Inter, Segoe UI, Arial">-</text><text x="40" y="226" fill="#93c5fd" font-size="20" font-family="Inter, Segoe UI, Arial" font-weight="600">Deployments</text><rect x="40" y="234" width="910" height="38" fill="#0f172a" rx="6" /><text x="50" y="260" fill="#e5e7eb" font-size="16" font-family="Inter, Segoe UI, Arial">Contract</text><line x1="320" y1="234" x2="320" y2="272" stroke="#374151" stroke-width="1" /><text x="330" y="260" fill="#e5e7eb" font-size="16" font-family="Inter, Segoe UI, Arial">Min</text><line x1="440" y1="234" x2="440" y2="272" stroke="#374151" stroke-width="1" /><text x="450" y="260" fill="#e5e7eb" font-size="16" font-family="Inter, Segoe UI, Arial">Max</text><line x1="560" y1="234" x2="560" y2="272" stroke="#374151" stroke-width="1" /><text x="570" y="260" fill="#e5e7eb" font-size="16" font-family="Inter, Segoe UI, Arial">Avg</text><line x1="700" y1="234" x2="700" y2="272" stroke="#374151" stroke-width="1" /><text x="710" y="260" fill="#e5e7eb" font-size="16" font-family="Inter, Segoe UI, Arial">% Limit</text><line x1="830" y1="234" x2="830" y2="272" stroke="#374151" stroke-width="1" /><text x="840" y="260" fill="#e5e7eb" font-size="16" font-family="Inter, Segoe UI, Arial">USD</text><rect x="40" y="272" width="910" height="38" fill="#111827" rx="6" /><text x="50" y="298" fill="#d1d5db" font-size="16" font-family="Inter, Segoe UI, Arial">VDFVerifierMock</text><line x1="320" y1="272" x2="320" y2="310" stroke="#374151" stroke-width="1" /><text x="330" y="298" fill="#d1d5db" font-size="16" font-family="Inter, Segoe UI, Arial">-</text><line x1="440" y1="272" x2="440" y2="310" stroke="#374151" stroke-width="1" /><text x="450" y="298" fill="#d1d5db" font-size="16" font-family="Inter, Segoe UI, Arial">-</text><line x1="560" y1="272" x2="560" y2="310" stroke="#374151" stroke-width="1" /><text x="570" y="298" fill="#d1d5db" font-size="16" font-family="Inter, Segoe UI, Arial">275483</text><line x1="700" y1="272" x2="700" y2="310" stroke="#374151" stroke-width="1" /><text x="710" y="298" fill="#d1d5db" font-size="16" font-family="Inter, Segoe UI, Arial">0.5 %</text><line x1="830" y1="272" x2="830" y2="310" stroke="#374151" stroke-width="1" /><text x="840" y="298" fill="#d1d5db" font-size="16" font-family="Inter, Segoe UI, Arial">-</text>
</svg>